<?xml version="1.0" standalone="no"?>
<!DOCTYPE svg PUBLIC "-//W3C//DTD SVG 20010904//EN"
 "http://www.w3.org/TR/2001/REC-SVG-20010904/DTD/svg10.dtd">
<svg version="1.0" xmlns="http://www.w3.org/2000/svg"
 width="446.000000pt" height="446.000000pt" viewBox="0 0 446.000000 446.000000"
 preserveAspectRatio="xMidYMid meet">
<metadata>
Created by potrace 1.14, written by Peter Selinger 2001-2017
</metadata>
<g transform="translate(0.000000,446.000000) scale(0.100000,-0.100000)"
fill="#000000" stroke="none">
<path d="M2080 4409 c-919 -53 -1679 -635 -1974 -1511 -14 -42 -27 -87 -30
-100 -8 -39 -14 -62 -24 -103 -6 -22 -16 -74 -22 -115 -6 -41 -14 -86 -17
-100 -12 -58 -10 -429 3 -525 89 -652 426 -1195 968 -1558 225 -151 503 -266
777 -321 119 -24 285 -40 424 -40 95 0 263 10 305 19 14 3 45 8 70 11 104 14
380 93 465 134 89 42 148 62 200 66 182 13 338 67 484 167 192 131 393 385
514 648 70 152 162 430 180 549 3 19 11 64 17 100 29 167 35 248 35 490 0 195
-6 312 -21 410 -27 180 -77 391 -119 505 -15 39 -31 84 -36 100 -5 17 -19 53
-32 80 -14 28 -32 68 -42 90 -11 22 -36 69 -57 104 -21 34 -38 65 -38 68 0 2
-21 34 -47 71 -128 183 -283 330 -440 418 -64 36 -203 91 -250 98 -16 2 -48 8
-72 11 -24 4 -62 7 -85 7 -26 -1 -74 14 -140 43 -203 88 -379 137 -606 170
-19 2 -82 7 -140 10 -58 4 -109 7 -115 8 -5 2 -66 -1 -135 -4z"/>
</g>
</svg>
